# xmcd CD database file
#
# Track frame offsets:
#	150
#	33502
#	49507
#	63255
#	72057
#	92872
#	116615
#	134835
#	162087
#	175735
#	207142
#	233655
#	268507
#
# Disc length: 4211 seconds
#
# Revision: 0
# Processed by: cddbd v1.5.2PL0 Copyright (c) Steve Scherf et al.
# Submitted via: CDex 1.40Beta9
#
DISCID=af10710d
DTITLE=Errollyn Wallen - the girl in my alphabet
DYEAR=2002
DGENRE=Native American
TTITLE0=dervish
TTITLE1=are you worried about the rising cost of funerals - part 1
TTITLE2=are you worried about the rising cost of funerals - part 2
TTITLE3=are you worried about the rising cost of funerals - part 3
TTITLE4=are you worried about the rising cost of funerals - part 4
TTITLE5=are you worried about the rising cost of funerals - part 5
TTITLE6=louis' loops
TTITLE7=horseplay - part 1
TTITLE8=horseplay - part 2
TTITLE9=horseplay - part 3
TTITLE10=horseplay - part 4
TTITLE11=in our lifetime
TTITLE12=the girl in my alphabet
EXTD=YEAR: 2002 ID3G: 64
EXTT0=
EXTT1=
EXTT2=
EXTT3=
EXTT4=
EXTT5=
EXTT6=
EXTT7=
EXTT8=
EXTT9=
EXTT10=
EXTT11=
EXTT12=
PLAYORDER=
